# xmcd CD database file
#
# Track frame offsets:
#	150
#	10501
#	20194
#	28715
#	38279
#	51092
#	59455
#	76413
#	86395
#	107561
#	119819
#	131708
#	146826
#	157575
#
# Disc length: 2216 seconds
#
# Revision: 4
# Processed by: cddbd v1.5.2PL0 Copyright (c) Steve Scherf et al.
# Submitted via: CDex 1.70beta2
#
DISCID=ad08a60e
DTITLE=Various Artist - The Beginning Of Rock 'n' Roll (Elvis and Friends)  CD2
DYEAR=2005
DGENRE=Country
TTITLE0=Elvis Presley - Good Rockin' Tonight
TTITLE1=Elvis Presley - Heartbreak Hotel  (Live)
TTITLE2=Elvis Presley - Long Tall Sally  (Live)
TTITLE3=Bill Haley and His Comets - Razzle Dazzle
TTITLE4=Jerry Lee Lewis - Whole Lotta Shakin' Goin' On
TTITLE5=Elvis Presley - Hearts Of Stone  (Bootleg)
TTITLE6=Roy Orbison - Oh Pretty Woman  (Live)
TTITLE7=Little Richard - Keep A-Knockin'
TTITLE8=Chuck Berry - Johnny B. Goode  (Live)
TTITLE9=Gene Vincent - Be Bop A Lula
TTITLE10=Chubby Checker - The Twist
TTITLE11=Bobby Rydell - Dream Lover
TTITLE12=Buddy Holly and The Picks - Rock-A-Bye Rock
TTITLE13=Carl Perkins - That Don't Move Me
EXTD=Dies ist die zweite Cd aus der 3er Box YEAR: 2005
EXTT0=
EXTT1=
EXTT2=
EXTT3=
EXTT4=
EXTT5=
EXTT6=
EXTT7=
EXTT8=
EXTT9=
EXTT10=
EXTT11=
EXTT12=
EXTT13=
PLAYORDER=
